<svg xmlns="http://www.w3.org/2000/svg" xmlns:xlink="http://www.w3.org/1999/xlink" contentStyleType="text/css" data-diagram-type="DESCRIPTION" height="694px" preserveAspectRatio="none" style="width:1505px;height:694px;background:#FFFFFF;" version="1.1" viewBox="0 0 1505 694" width="1505px" zoomAndPan="magnify"><defs/><g><!--cluster CarManager--><g class="cluster" data-entity="CarManager" data-source-line="9" data-uid="ent0006" id="cluster_CarManager"><rect fill="none" height="479" rx="2.5" ry="2.5" style="stroke:#181818;stroke-width:1;" width="1204" x="295" y="7"/><text fill="#000000" font-family="sans-serif" font-size="14" font-weight="bold" lengthAdjust="spacing" textLength="95.8398" x="849.0801" y="21.9951">CarManager</text></g><!--cluster cadastro--><g class="cluster" data-entity="cadastro" data-source-line="10" data-uid="ent0007" id="cluster_cadastro"><rect fill="none" height="229" rx="2.5" ry="2.5" style="stroke:#181818;stroke-width:1;" width="306" x="327" y="174"/><text fill="#000000" font-family="sans-serif" font-size="14" font-weight="bold" lengthAdjust="spacing" textLength="70.7383" x="444.6309" y="188.9951">Cadastro</text><text fill="#000000" font-family="sans-serif" font-size="14" font-weight="bold" lengthAdjust="spacing" textLength="34.8018" x="462.5991" y="205.292">(C#)</text></g><!--cluster controle--><g class="cluster" data-entity="controle" data-source-line="14" data-uid="ent0010" id="cluster_controle"><rect fill="none" height="148" rx="2.5" ry="2.5" style="stroke:#181818;stroke-width:1;" width="303" x="873" y="118"/><text fill="#000000" font-family="sans-serif" font-size="14" font-weight="bold" lengthAdjust="spacing" textLength="67.3682" x="990.8159" y="132.9951">Controle</text><text fill="#000000" font-family="sans-serif" font-size="14" font-weight="bold" lengthAdjust="spacing" textLength="34.8018" x="1007.0991" y="149.292">(C#)</text></g><!--cluster pecas_c--><g class="cluster" data-entity="pecas_c" data-source-line="17" data-uid="ent0012" id="cluster_pecas_c"><rect fill="none" height="148" rx="2.5" ry="2.5" style="stroke:#181818;stroke-width:1;" width="267" x="891" y="306"/><text fill="#000000" font-family="sans-serif" font-size="14" font-weight="bold" lengthAdjust="spacing" textLength="45.835" x="1001.5825" y="320.9951">Pe&#231;as</text><text fill="#000000" font-family="sans-serif" font-size="14" font-weight="bold" lengthAdjust="spacing" textLength="34.8018" x="1007.0991" y="337.292">(C#)</text></g><!--entity db--><g class="entity" data-entity="db" data-source-line="20" data-uid="ent0014" id="entity_db"><path d="M1349,237 C1349,227 1415.9126,227 1415.9126,227 C1415.9126,227 1482.8252,227 1482.8252,237 L1482.8252,278.5938 C1482.8252,288.5938 1415.9126,288.5938 1415.9126,288.5938 C1415.9126,288.5938 1349,288.5938 1349,278.5938 L1349,237" fill="#F1F1F1" style="stroke:#181818;stroke-width:0.5;"/><path d="M1349,237 C1349,247 1415.9126,247 1415.9126,247 C1415.9126,247 1482.8252,247 1482.8252,237" fill="none" style="stroke:#181818;stroke-width:0.5;"/><text fill="#000000" font-family="sans-serif" font-size="14" lengthAdjust="spacing" textLength="113.8252" x="1359" y="263.9951">Banco de Dados</text><text fill="#000000" font-family="sans-serif" font-size="14" lengthAdjust="spacing" textLength="58.9941" x="1359" y="280.292">(MySQL)</text></g><!--entity Cadastro de clientes e ve?culos--><g class="entity" data-entity="Cadastro de clientes e ve.culos" data-source-line="11" data-uid="ent0008" id="entity_Cadastro de clientes e ve.culos"><rect fill="#F1F1F1" height="46.2969" rx="2.5" ry="2.5" style="stroke:#181818;stroke-width:0.5;" width="258.3057" x="351" y="233"/><rect fill="#F1F1F1" height="10" style="stroke:#181818;stroke-width:0.5;" width="15" x="589.3057" y="238"/><rect fill="#F1F1F1" height="2" style="stroke:#181818;stroke-width:0.5;" width="4" x="587.3057" y="240"/><rect fill="#F1F1F1" height="2" style="stroke:#181818;stroke-width:0.5;" width="4" x="587.3057" y="244"/><text fill="#000000" font-family="sans-serif" font-size="14" lengthAdjust="spacing" textLength="218.3057" x="366" y="265.9951">Cadastro de clientes e ve&#237;culos</text></g><!--entity Abertura de ordem de servi?o--><g class="entity" data-entity="Abertura de ordem de servi.o" data-source-line="12" data-uid="ent0009" id="entity_Abertura de ordem de servi.o"><rect fill="#F1F1F1" height="46.2969" rx="2.5" ry="2.5" style="stroke:#181818;stroke-width:0.5;" width="249.8906" x="355" y="314"/><rect fill="#F1F1F1" height="10" style="stroke:#181818;stroke-width:0.5;" width="15" x="584.8906" y="319"/><rect fill="#F1F1F1" height="2" style="stroke:#181818;stroke-width:0.5;" width="4" x="582.8906" y="321"/><rect fill="#F1F1F1" height="2" style="stroke:#181818;stroke-width:0.5;" width="4" x="582.8906" y="325"/><text fill="#000000" font-family="sans-serif" font-size="14" lengthAdjust="spacing" textLength="209.8906" x="370" y="346.9951">Abertura de ordem de servi&#231;o</text></g><!--entity Controle de ordem de servi?os--><g class="entity" data-entity="Controle de ordem de servi.os" data-source-line="15" data-uid="ent0011" id="entity_Controle de ordem de servi.os"><rect fill="#F1F1F1" height="46.2969" rx="2.5" ry="2.5" style="stroke:#181818;stroke-width:0.5;" width="255.1816" x="897" y="177"/><rect fill="#F1F1F1" height="10" style="stroke:#181818;stroke-width:0.5;" width="15" x="1132.1816" y="182"/><rect fill="#F1F1F1" height="2" style="stroke:#181818;stroke-width:0.5;" width="4" x="1130.1816" y="184"/><rect fill="#F1F1F1" height="2" style="stroke:#181818;stroke-width:0.5;" width="4" x="1130.1816" y="188"/><text fill="#000000" font-family="sans-serif" font-size="14" lengthAdjust="spacing" textLength="215.1816" x="912" y="209.9951">Controle de ordem de servi&#231;os</text></g><!--entity Recebe pedido das pe?as--><g class="entity" data-entity="Recebe pedido das pe.as" data-source-line="18" data-uid="ent0013" id="entity_Recebe pedido das pe.as"><rect fill="#F1F1F1" height="46.2969" rx="2.5" ry="2.5" style="stroke:#181818;stroke-width:0.5;" width="219.0605" x="915" y="365"/><rect fill="#F1F1F1" height="10" style="stroke:#181818;stroke-width:0.5;" width="15" x="1114.0605" y="370"/><rect fill="#F1F1F1" height="2" style="stroke:#181818;stroke-width:0.5;" width="4" x="1112.0605" y="372"/><rect fill="#F1F1F1" height="2" style="stroke:#181818;stroke-width:0.5;" width="4" x="1112.0605" y="376"/><text fill="#000000" font-family="sans-serif" font-size="14" lengthAdjust="spacing" textLength="179.0605" x="930" y="397.9951">Recebe pedido das pe&#231;as</text></g><!--entity Consultor--><g class="entity" data-entity="Consultor" data-source-line="4" data-uid="ent0002" id="entity_Consultor"><ellipse cx="39.5405" cy="365.5" fill="#F1F1F1" rx="8" ry="8" style="stroke:#181818;stroke-width:0.5;"/><path d="M39.5405,373.5 L39.5405,400.5 M26.5405,381.5 L52.5405,381.5 M39.5405,400.5 L26.5405,415.5 M39.5405,400.5 L52.5405,415.5" fill="none" style="stroke:#181818;stroke-width:0.5;"/><text fill="#000000" font-family="sans-serif" font-size="14" lengthAdjust="spacing" textLength="67.0811" x="6" y="429.9951">Consultor</text></g><!--entity Gerente--><g class="entity" data-entity="Gerente" data-source-line="5" data-uid="ent0003" id="entity_Gerente"><ellipse cx="1415.9033" cy="510.5" fill="#F1F1F1" rx="8" ry="8" style="stroke:#181818;stroke-width:0.5;"/><path d="M1415.9033,518.5 L1415.9033,545.5 M1402.9033,526.5 L1428.9033,526.5 M1415.9033,545.5 L1402.9033,560.5 M1415.9033,545.5 L1428.9033,560.5" fill="none" style="stroke:#181818;stroke-width:0.5;"/><text fill="#000000" font-family="sans-serif" font-size="14" lengthAdjust="spacing" textLength="56.8066" x="1387.5" y="574.9951">Gerente</text></g><!--entity Chefe--><g class="entity" data-entity="Chefe" data-source-line="6" data-uid="ent0004" id="entity_Chefe"><ellipse cx="1024.3135" cy="510.5" fill="#F1F1F1" rx="8" ry="8" style="stroke:#181818;stroke-width:0.5;"/><path d="M1024.3135,518.5 L1024.3135,545.5 M1011.3135,526.5 L1037.3135,526.5 M1024.3135,545.5 L1011.3135,560.5 M1024.3135,545.5 L1037.3135,560.5" fill="none" style="stroke:#181818;stroke-width:0.5;"/><text fill="#000000" font-family="sans-serif" font-size="14" lengthAdjust="spacing" textLength="113.627" x="967.5" y="574.9951">Chefe de oficina</text></g><!--entity Pecas--><g class="entity" data-entity="Pecas" data-source-line="7" data-uid="ent0005" id="entity_Pecas"><ellipse cx="1416.1685" cy="621.5" fill="#F1F1F1" rx="8" ry="8" style="stroke:#181818;stroke-width:0.5;"/><path d="M1416.1685,629.5 L1416.1685,656.5 M1403.1685,637.5 L1429.1685,637.5 M1416.1685,656.5 L1403.1685,671.5 M1416.1685,656.5 L1429.1685,671.5" fill="none" style="stroke:#181818;stroke-width:0.5;"/><text fill="#000000" font-family="sans-serif" font-size="14" lengthAdjust="spacing" textLength="104.3369" x="1364" y="685.9951">Setor de Pe&#231;as</text></g><!--link Consultor to cadastro--><g class="link" data-entity-1="Consultor" data-entity-2="cadastro" data-source-line="23" data-uid="lnk15" id="link_Consultor_cadastro"><path d="M73.1,395 C123.515,395 223.805,395 312.0763,395 C314.8347,395 317.5815,395 320.3146,395 C321.6811,395 323.0443,395 324.4038,395 C325.0835,395 319.7624,395 320.4403,395" fill="none" id="Consultor-to-cadastro" style="stroke:#181818;stroke-width:1;"/><polygon fill="#181818" points="326.4403,395,317.4403,391,321.4403,395,317.4403,399,326.4403,395" style="stroke:#181818;stroke-width:1;"/><text fill="#000000" font-family="sans-serif" font-size="13" lengthAdjust="spacing" textLength="174.3447" x="104" y="376.0669">Cadastra clientes, ve&#237;culos</text><text fill="#000000" font-family="sans-serif" font-size="13" lengthAdjust="spacing" textLength="65.4253" x="158.4597" y="391.1997">e servi&#231;os</text></g><!--link cadastro to Chefe--><g class="link" data-entity-1="cadastro" data-entity-2="Chefe" data-source-line="24" data-uid="lnk16" id="link_cadastro_Chefe"><path d="M492.3353,403.2526 C492.4669,403.3461 492.5996,403.4404 492.7332,403.5353 C493.2679,403.915 493.8193,404.3054 494.3868,404.7061 C495.5219,405.5076 496.7219,406.3504 497.9841,407.2313 C508.0812,414.2781 522.1538,423.7625 538.75,434.0375 C571.9425,454.5875 615.23,478.3 657,492 C763.1,526.8 888.2838,536.2553 961.4438,538.8753" fill="none" id="cadastro-to-Chefe" style="stroke:#181818;stroke-width:1;"/><polygon fill="#181818" points="967.44,539.09,958.5889,534.7705,962.4432,538.9111,958.3026,542.7653,967.44,539.09" style="stroke:#181818;stroke-width:1;"/><text fill="#000000" font-family="sans-serif" font-size="13" lengthAdjust="spacing" textLength="190.8105" x="658" y="488.0669">Envia informa&#231;&#245;es do ve&#237;culo</text></g><!--link cadastro to pecas_c--><g class="link" data-entity-1="cadastro" data-entity-2="pecas_c" data-source-line="25" data-uid="lnk17" id="link_cadastro_pecas_c"><path d="M539.6137,403.0029 C540.1397,403.0721 540.6681,403.1416 541.1988,403.2112 C575.16,407.67 618.4,413.06 657,417 C697.0025,421.08 739.5125,424.9081 780.8731,428.3613 C801.5534,430.0878 821.9464,431.7206 841.5949,433.2443 C851.4192,434.0061 861.0573,434.7407 870.4522,435.446 C875.1497,435.7987 879.7863,436.1441 884.355,436.4819 C885.4971,436.5663 886.6351,436.6503 887.7686,436.7338 C888.3354,436.7756 882.9173,436.3772 883.4818,436.4187" fill="none" id="cadastro-to-pecas_c" style="stroke:#181818;stroke-width:1;"/><polygon fill="#181818" points="889.4657,436.8588,880.7833,432.2095,884.4792,436.4921,880.1966,440.1879,889.4657,436.8588" style="stroke:#181818;stroke-width:1;"/><text fill="#000000" font-family="sans-serif" font-size="13" lengthAdjust="spacing" textLength="133.2246" x="686.6936" y="398.0669">Ao cadastrar ve&#237;culo</text><text fill="#000000" font-family="sans-serif" font-size="13" lengthAdjust="spacing" textLength="146.6118" x="680" y="413.1997">envia pedido de pe&#231;as</text></g><!--link pecas_c to Pecas--><g class="link" data-entity-1="pecas_c" data-entity-2="Pecas" data-source-line="26" data-uid="lnk18" id="link_pecas_c_Pecas"><path d="M1146.0072,454.0239 C1163.6075,460.295 1179.8575,469.805 1192,484 C1208.8,503.64 1183.29,580.29 1200,600 C1239.7,646.81 1307.7602,655.0804 1357.7202,654.6604" fill="none" id="pecas_c-to-Pecas" style="stroke:#181818;stroke-width:1;"/><polygon fill="#181818" points="1363.72,654.61,1354.6867,650.6858,1358.7202,654.652,1354.7539,658.6855,1363.72,654.61" style="stroke:#181818;stroke-width:1;"/><text fill="#000000" font-family="sans-serif" font-size="13" lengthAdjust="spacing" textLength="106.5581" x="1206.5" y="596.0669">Pedido de pe&#231;as</text></g><!--link Chefe to controle--><g class="link" data-entity-1="Chefe" data-entity-2="controle" data-source-line="27" data-uid="lnk19" id="link_Chefe_controle"><path d="M967.36,545.82 C894.51,549.66 770.76,543.47 710,467 C659.025,402.835 732.8125,351.5025 821.6775,315.7688 C866.11,297.9019 914.3119,283.9347 952.5725,274.213 C962.1377,271.7825 971.0815,269.6175 979.1898,267.7231 C981.2168,267.2495 983.1917,266.7929 985.1109,266.3532 C985.5908,266.2433 980.2172,267.468 980.69,267.3602" fill="none" id="Chefe-to-controle" style="stroke:#181818;stroke-width:1;"/><polygon fill="#181818" points="986.5399,266.0266,976.876,264.1271,981.665,267.138,978.6541,271.927,986.5399,266.0266" style="stroke:#181818;stroke-width:1;"/><text fill="#000000" font-family="sans-serif" font-size="13" lengthAdjust="spacing" textLength="92.6948" x="706.8218" y="448.0669">Visualiza&#231;&#227;o e</text><text fill="#000000" font-family="sans-serif" font-size="13" lengthAdjust="spacing" textLength="174.3384" x="666" y="463.1997">apontamento de produtivo</text></g><!--link controle to Gerente--><g class="link" data-entity-1="controle" data-entity-2="Gerente" data-source-line="28" data-uid="lnk20" id="link_controle_Gerente"><path d="M1060.3244,266.1915 C1060.5553,266.2576 1060.7869,266.3242 1061.0194,266.3913 C1061.4842,266.5254 1061.9522,266.6614 1062.4232,266.7992 C1064.3073,267.3503 1066.2401,267.9307 1068.2157,268.5414 C1076.1182,270.9842 1084.7066,273.9113 1093.6113,277.3825 C1129.23,291.2675 1169.91,313.86 1192,349 C1201.12,363.51 1188.62,490.19 1200,503 C1247.15,556.1 1334.6256,552.0848 1381.2456,545.6948" fill="none" id="controle-to-Gerente" style="stroke:#181818;stroke-width:1;"/><polygon fill="#181818" points="1387.19,544.88,1377.7302,542.1392,1382.2363,545.559,1378.8166,550.0651,1387.19,544.88" style="stroke:#181818;stroke-width:1;"/><text fill="#000000" font-family="sans-serif" font-size="13" lengthAdjust="spacing" textLength="117.8696" x="1201" y="499.0669">Visualiza&#231;&#227;o geral</text></g><!--link cadastro to db--><g class="link" data-entity-1="cadastro" data-entity-2="db" data-source-line="29" data-uid="lnk21" id="link_cadastro_db"><path d="M633.7435,382.5376 C634.0186,382.4354 634.2934,382.3325 634.5679,382.229 C635.1168,382.022 635.6642,381.8124 636.2102,381.6003 C640.5782,379.9032 644.8519,378.0413 649,376 C768.29,317.3 734.59,212.89 857,161 C994.08,102.89 1046.23,130.67 1192,161 C1252.55,173.6 1311.5309,200.7257 1355.4409,224.0457" fill="none" id="cadastro-to-db" style="stroke:#181818;stroke-width:1;"/><polygon fill="#181818" points="1360.74,226.86,1354.6676,219.1059,1356.3241,224.5148,1350.9152,226.1713,1360.74,226.86" style="stroke:#181818;stroke-width:1;"/><text fill="#000000" font-family="sans-serif" font-size="13" lengthAdjust="spacing" textLength="109.2241" x="970" y="124.0669">Armazena dados</text></g><!--link controle to db--><g class="link" data-entity-1="controle" data-entity-2="db" data-source-line="30" data-uid="lnk22" id="link_controle_db"><path d="M1176.4559,258 C1177.5421,258 1178.6302,258 1179.72,258 C1181.8998,258 1184.0866,258 1186.2794,258 C1190.665,258 1195.0742,258 1199.4979,258 C1217.1927,258 1235.1186,258 1252.6822,258 C1287.8094,258 1315.4875,258 1342.97,258" fill="none" id="controle-to-db" style="stroke:#181818;stroke-width:1;"/><polygon fill="#181818" points="1348.97,258,1339.97,254,1343.97,258,1339.97,262,1348.97,258" style="stroke:#181818;stroke-width:1;"/><text fill="#000000" font-family="sans-serif" font-size="13" lengthAdjust="spacing" textLength="109.2241" x="1205" y="254.0669">Armazena dados</text></g><!--link pecas_c to db--><g class="link" data-entity-1="pecas_c" data-entity-2="db" data-source-line="31" data-uid="lnk23" id="link_pecas_c_db"><path d="M1158.5513,437.363 C1160.8538,436.8225 1163.1479,436.2541 1165.4299,435.6566 C1174.5578,433.2663 1183.4925,430.4088 1192,427 C1270.46,395.56 1341.0198,333.015 1380.9098,293.455" fill="none" id="pecas_c-to-db" style="stroke:#181818;stroke-width:1;"/><polygon fill="#181818" points="1385.17,289.23,1375.963,292.7273,1381.6198,292.7508,1381.5963,298.4076,1385.17,289.23" style="stroke:#181818;stroke-width:1;"/><text fill="#000000" font-family="sans-serif" font-size="13" lengthAdjust="spacing" textLength="109.2241" x="1205" y="349.0669">Armazena dados</text></g><!--SRC=[RP9DJWCn38NtEOKrR4222x10WeBOW5Ien0OGyYHkYKYJAibK0iHfM7J5aXFCnN0oas4eNUNl-REV7KFp2D61ruld24fxab4xAyABjYlqk8GLoXTSq2o-6eBqZ7PXI0YKqNcOE1iQmxl-V4cURAJ-L4sUQKwW2DnSIssn0WoGBujYHcbXnPJQ3OOic9B484IVcIdehz7orbVmBW163mf3zEx1xa_s3dAixA-o4E2-I58AQNGgBW31cjelsHWN7ZlPQKq-DXvphLxHCcq2-RLkDovfFlxaTPQHXiPv-wiXRpdl0eP_nCxzYBTAFNYI1NTBachYMwKLUyc255502YFM69XqXbPcj-UeN29UlyvkhZgegiM74CFCuEZevBTXnqC_SUZKuM-Z7koe_aeCOOdHZPa15tQj4RITEx_4TjD-SxEvtWBP2YiUEV3KbKBG3t9EcNd5DVMcAr4Y4oN_biIO_fDrTMMNPHoikzEXGQFVKe6V3dYAkE9dNBBbBjmxrKIzJlMMk0JfF_SE1dzDD5lkL9sDSIFUoFB7IkFO0kwMZCtjLlm0]--></g></svg>