<svg xmlns="http://www.w3.org/2000/svg" xmlns:xlink="http://www.w3.org/1999/xlink" contentStyleType="text/css" data-diagram-type="DESCRIPTION" height="242px" preserveAspectRatio="none" style="width:1181px;height:242px;background:#FFFFFF;" version="1.1" viewBox="0 0 1181 242" width="1181px" zoomAndPan="magnify"><defs/><g><!--entity C1--><g class="entity" data-entity="C1" data-source-line="3" data-uid="ent0002" id="entity_C1"><rect fill="#F1F1F1" height="46.2969" rx="2.5" ry="2.5" style="stroke:#181818;stroke-width:0.5;" width="138.3828" x="7" y="179.5659"/><rect fill="#F1F1F1" height="10" style="stroke:#181818;stroke-width:0.5;" width="15" x="125.3828" y="184.5659"/><rect fill="#F1F1F1" height="2" style="stroke:#181818;stroke-width:0.5;" width="4" x="123.3828" y="186.5659"/><rect fill="#F1F1F1" height="2" style="stroke:#181818;stroke-width:0.5;" width="4" x="123.3828" y="190.5659"/><text fill="#000000" font-family="sans-serif" font-size="14" lengthAdjust="spacing" textLength="98.3828" x="22" y="212.561">Cadastro - C#</text></g><!--entity CM--><g class="entity" data-entity="CM" data-source-line="4" data-uid="ent0003" id="entity_CM"><rect fill="#F1F1F1" height="46.2969" rx="2.5" ry="2.5" style="stroke:#181818;stroke-width:0.5;" width="125.4766" x="361" y="94.5659"/><rect fill="#F1F1F1" height="10" style="stroke:#181818;stroke-width:0.5;" width="15" x="466.4766" y="99.5659"/><rect fill="#F1F1F1" height="2" style="stroke:#181818;stroke-width:0.5;" width="4" x="464.4766" y="101.5659"/><rect fill="#F1F1F1" height="2" style="stroke:#181818;stroke-width:0.5;" width="4" x="464.4766" y="105.5659"/><text fill="#000000" font-family="sans-serif" font-size="14" lengthAdjust="spacing" textLength="85.4766" x="376" y="127.561">CarManager</text></g><!--entity P1--><g class="entity" data-entity="P1" data-source-line="5" data-uid="ent0004" id="entity_P1"><rect fill="#F1F1F1" height="46.2969" rx="2.5" ry="2.5" style="stroke:#181818;stroke-width:0.5;" width="116.084" x="687.5" y="9.5659"/><rect fill="#F1F1F1" height="10" style="stroke:#181818;stroke-width:0.5;" width="15" x="783.584" y="14.5659"/><rect fill="#F1F1F1" height="2" style="stroke:#181818;stroke-width:0.5;" width="4" x="781.584" y="16.5659"/><rect fill="#F1F1F1" height="2" style="stroke:#181818;stroke-width:0.5;" width="4" x="781.584" y="20.5659"/><text fill="#000000" font-family="sans-serif" font-size="14" lengthAdjust="spacing" textLength="76.084" x="702.5" y="42.561">Pecas - C#</text></g><!--entity CT--><g class="entity" data-entity="CT" data-source-line="6" data-uid="ent0005" id="entity_CT"><rect fill="#F1F1F1" height="46.2969" rx="2.5" ry="2.5" style="stroke:#181818;stroke-width:0.5;" width="134.9854" x="678" y="132.5659"/><rect fill="#F1F1F1" height="10" style="stroke:#181818;stroke-width:0.5;" width="15" x="792.9854" y="137.5659"/><rect fill="#F1F1F1" height="2" style="stroke:#181818;stroke-width:0.5;" width="4" x="790.9854" y="139.5659"/><rect fill="#F1F1F1" height="2" style="stroke:#181818;stroke-width:0.5;" width="4" x="790.9854" y="143.5659"/><text fill="#000000" font-family="sans-serif" font-size="14" lengthAdjust="spacing" textLength="94.9854" x="693" y="165.561">Controle - C#</text></g><!--entity DB--><g class="entity" data-entity="DB" data-source-line="7" data-uid="ent0006" id="entity_DB"><path d="M971,190.0659 C971,180.0659 1067.9771,180.0659 1067.9771,180.0659 C1067.9771,180.0659 1164.9541,180.0659 1164.9541,190.0659 L1164.9541,215.3628 C1164.9541,225.3628 1067.9771,225.3628 1067.9771,225.3628 C1067.9771,225.3628 971,225.3628 971,215.3628 L971,190.0659" fill="#F1F1F1" style="stroke:#181818;stroke-width:0.5;"/><path d="M971,190.0659 C971,200.0659 1067.9771,200.0659 1067.9771,200.0659 C1067.9771,200.0659 1164.9541,200.0659 1164.9541,190.0659" fill="none" style="stroke:#181818;stroke-width:0.5;"/><text fill="#000000" font-family="sans-serif" font-size="14" lengthAdjust="spacing" textLength="173.9541" x="981" y="217.061">Banco de dados - MySQL</text></g><!--link C1 to DB--><g class="link" data-entity-1="C1" data-entity-2="DB" data-source-line="9" data-uid="lnk7" id="link_C1_DB"><path d="M145.05,202.5659 C317.39,202.5659 765.49,202.5659 964.85,202.5659" fill="none" id="C1-to-DB" style="stroke:#181818;stroke-width:1;"/><polygon fill="#181818" points="970.85,202.5659,961.85,198.5659,965.85,202.5659,961.85,206.5659,970.85,202.5659" style="stroke:#181818;stroke-width:1;"/><text fill="#000000" font-family="sans-serif" font-size="13" lengthAdjust="spacing" textLength="130.3809" x="517" y="198.6328">guarda informacoes</text></g><!--link C1 to CM--><g class="link" data-entity-1="C1" data-entity-2="CM" data-source-line="10" data-uid="lnk8" id="link_C1_CM"><path d="M145.26,185.7759 C207.99,170.3359 294.3536,149.0889 354.9336,134.1889" fill="none" id="C1-to-CM" style="stroke:#181818;stroke-width:1;"/><polygon fill="#181818" points="360.76,132.7559,351.0651,131.0212,355.9047,133.9501,352.9758,138.7897,360.76,132.7559" style="stroke:#181818;stroke-width:1;"/><text fill="#000000" font-family="sans-serif" font-size="13" lengthAdjust="spacing" textLength="154.9717" x="176" y="136.6328">cadastro cliente/veiculo</text></g><!--link CM to CT--><g class="link" data-entity-1="CM" data-entity-2="CT" data-source-line="11" data-uid="lnk9" id="link_CM_CT"><path d="M486.2,124.8959 C541.14,131.4159 615.3618,140.2285 671.7918,146.9285" fill="none" id="CM-to-CT" style="stroke:#181818;stroke-width:1;"/><polygon fill="#181818" points="677.75,147.6359,669.2844,142.6027,672.7849,147.0464,668.3412,150.5469,677.75,147.6359" style="stroke:#181818;stroke-width:1;"/><text fill="#000000" font-family="sans-serif" font-size="13" lengthAdjust="spacing" textLength="111.0205" x="526.5" y="125.6328">fluxo de trabalho</text></g><!--link CT to CM--><g class="link" data-entity-1="CT" data-entity-2="CM" data-source-line="15" data-uid="lnk13" id="link_CT_CM"><path d="M677.94,170.0159 C631.78,177.4659 569.26,182.4059 516,168.5659 C494.88,163.0759 478.508,154.7534 461.708,144.0334" fill="none" id="CT-to-CM" style="stroke:#181818;stroke-width:1;"/><polygon fill="#181818" points="456.65,140.8059,462.0853,149.0191,460.865,143.4955,466.3887,142.2751,456.65,140.8059" style="stroke:#181818;stroke-width:1;"/><text fill="#000000" font-family="sans-serif" font-size="13" lengthAdjust="spacing" textLength="130.4126" x="517" y="164.6328">recebe info veiculos</text></g><!--link CT to DB--><g class="link" data-entity-1="CT" data-entity-2="DB" data-source-line="12" data-uid="lnk10" id="link_CT_DB"><path d="M813.3,165.3659 C858.89,172.0459 914.0535,180.1355 964.8635,187.5855" fill="none" id="CT-to-DB" style="stroke:#181818;stroke-width:1;"/><polygon fill="#181818" points="970.8,188.4559,962.4755,183.1926,965.8529,187.7306,961.3149,191.1079,970.8,188.4559" style="stroke:#181818;stroke-width:1;"/><text fill="#000000" font-family="sans-serif" font-size="13" lengthAdjust="spacing" textLength="96.6304" x="844" y="167.6328">consulta/grava</text></g><!--link P1 to CM--><g class="link" data-entity-1="P1" data-entity-2="CM" data-source-line="13" data-uid="lnk11" id="link_P1_CM"><path d="M687.3,51.7059 C674.43,55.8059 660.79,59.9759 648,63.5659 C593.62,78.8459 536.9203,92.4041 491.8503,102.6641" fill="none" id="P1-to-CM" style="stroke:#181818;stroke-width:1;"/><polygon fill="#181818" points="486,103.9959,495.6634,105.8984,490.8753,102.8861,493.8876,98.098,486,103.9959" style="stroke:#181818;stroke-width:1;"/><text fill="#000000" font-family="sans-serif" font-size="13" lengthAdjust="spacing" textLength="83.9604" x="540.5" y="59.6328">envia pedido</text></g><!--link CM to P1--><g class="link" data-entity-1="CM" data-entity-2="P1" data-source-line="14" data-uid="lnk12" id="link_CM_P1"><path d="M444.8,94.2159 C461.81,76.4759 487.8,53.3459 516,42.5659 C571.26,21.4359 633.6187,21.0423 681.0987,24.8023" fill="none" id="CM-to-P1" style="stroke:#181818;stroke-width:1;"/><polygon fill="#181818" points="687.08,25.2759,678.4239,20.5779,682.0956,24.8812,677.7923,28.5529,687.08,25.2759" style="stroke:#181818;stroke-width:1;"/><text fill="#000000" font-family="sans-serif" font-size="13" lengthAdjust="spacing" textLength="123.4048" x="520.5" y="19.6328">solicita/recebe info</text></g><!--SRC=[LP2nRiCm34HtVGNXpaQGDKE6g6CDEAX_WA5eHu0Y1f9iD7zVLgrJPnFuxev71HuB587afsi1vnDJyHAD8RdT9N8iq5Xqc4iIQC6-DO0PxFwLfmuZJfn-ORU5FPFEdix-rIbHSmDlaWVZiE05CqDpmaW2Zi6Xav-Gxl5v_gYwzvCnTWzjUzGd762QCJa47qT9DoJXl6BRAQRr10fUD_DkOKzp4AEqYWOLZM7-gkjAqWBXgdJutq0IynmAxgQ42vf-ayvnyGXtTjuz4vKV84lmvDMZtyeNhlNMqEhSpE6lKZRV]--></g></svg>